<svg id="4db93161-6dcd-4094-b6cd-2643069e58aa" data-name="圖層 1" xmlns="http://www.w3.org/2000/svg" viewBox="0 0 563 320">
  <title>工作區域 2</title>
  <path d="M562.5,1.5C560.3,0,556.8,0,550.7,0H12C6.3,0,3.5,0,1.8,1.8S0,6.4,0,12.1V207.3L414.2,316a73.4,73.4,0,0,0,7.4,1.4H423a68.1,68.1,0,0,0,7.8.5h.1a41.8,41.8,0,0,0,5-.2c87-6,126.9-154,127.1-288.9C563,19.6,562.9,10.5,562.5,1.5Z" style="fill: #d70031"/>
  <path d="M288.4,156.5l-28.1-13.1-2.6,20.2,29.3,5.6A91.4,91.4,0,0,1,288.4,156.5Z" style="fill: #d9374e"/>
  <path d="M286.9,178.3l-27.8,9.8,2.6,20.7,26.4-17.1A94,94,0,0,1,286.9,178.3Z" style="fill: #d9374e"/>
  <path d="M232.2,130.3l28.1,13.1,2.6-20.2-29.3-5.6A91.4,91.4,0,0,1,232.2,130.3Z" style="fill: #d9374e"/>
  <path d="M233.7,108.5l27.8-9.8L258.9,78,232.5,95.1A94,94,0,0,1,233.7,108.5Z" style="fill: #d9374e"/>
  <path d="M261.7,208.8l-28-13.1-2.6,20.1,29.3,5.7A107.1,107.1,0,0,1,261.7,208.8Z" style="fill: #d9374e"/>
  <path d="M260.3,230.6l-27.9,9.8,2.7,20.7L261.5,244A94,94,0,0,1,260.3,230.6Z" style="fill: #d9374e"/>
  <path d="M205.6,182.5l28.1,13.2,2.6-20.2L207,169.9A105.6,105.6,0,0,1,205.6,182.5Z" style="fill: #d9374e"/>
  <path d="M207.1,160.8l27.8-9.8-2.7-20.7-26.3,17.1A109.4,109.4,0,0,1,207.1,160.8Z" style="fill: #d9374e"/>
  <path d="M232.7,59.9l-28-13.1-2.6,20.1,29.3,5.7A107.1,107.1,0,0,1,232.7,59.9Z" style="fill: #d9374e"/>
  <path d="M231.3,81.7l-27.9,9.8,2.7,20.7,26.4-17.1A94,94,0,0,1,231.3,81.7Z" style="fill: #d9374e"/>
  <path d="M176.6,33.6l28.1,13.2,2.6-20.2L178,21A105.6,105.6,0,0,1,176.6,33.6Z" style="fill: #d9374e"/>
  <path d="M206.1,112.2,178,99l-2.6,20.2,29.3,5.6A105.6,105.6,0,0,1,206.1,112.2Z" style="fill: #d9374e"/>
  <path d="M204.6,133.9l-27.8,9.8,2.7,20.8,26.4-17.1A110.4,110.4,0,0,1,204.6,133.9Z" style="fill: #d9374e"/>
  <path d="M150,85.9,178,99l2.6-20.1-29.2-5.6A107.9,107.9,0,0,1,150,85.9Z" style="fill: #d9374e"/>
  <path d="M151.5,64.1l27.8-9.8-2.7-20.7L150.2,50.7A110.7,110.7,0,0,1,151.5,64.1Z" style="fill: #d9374e"/>
  <path d="M179,234.8l28,13.1,2.6-20.1-29.2-5.6C180.1,226.4,179.7,230.6,179,234.8Z" style="fill: #d9374e"/>
  <path d="M180.5,213l27.8-9.8-2.7-20.7-26.4,17.1A110.7,110.7,0,0,1,180.5,213Z" style="fill: #d9374e"/>
  <path d="M179.5,164.5l-28.1-13.2-2.6,20.2,29.3,5.6A105.6,105.6,0,0,1,179.5,164.5Z" style="fill: #d9374e"/>
  <path d="M178,186.2,150.2,196l2.6,20.7,26.4-17.1A111.2,111.2,0,0,1,178,186.2Z" style="fill: #d9374e"/>
  <path d="M123.4,138.2l28,13.1,2.6-20.1-29.3-5.7A109.3,109.3,0,0,1,123.4,138.2Z" style="fill: #d9374e"/>
  <path d="M124.8,116.4l27.9-9.8L150,85.9,123.6,103A94,94,0,0,1,124.8,116.4Z" style="fill: #d9374e"/>
  <path d="M152.8,216.7l-28-13.1-2.6,20.2,29.3,5.6A109.3,109.3,0,0,1,152.8,216.7Z" style="fill: #d9374e"/>
  <path d="M96.7,190.5l28.1,13.1,2.6-20.2-29.3-5.6A109.6,109.6,0,0,1,96.7,190.5Z" style="fill: #d9374e"/>
  <path d="M98.2,168.7l27.8-9.8-2.6-20.7L97,155.3A111.2,111.2,0,0,1,98.2,168.7Z" style="fill: #d9374e"/>
  <path d="M71.6,221l27.8-9.8-2.7-20.7L70.3,207.6A110.7,110.7,0,0,1,71.6,221Z" style="fill: #d9374e"/>
  <path d="M139.5,28.5,111.4,15.4l-2.6,20.2,29.3,5.6A109.6,109.6,0,0,1,139.5,28.5Z" style="fill: #d9374e"/>
  <path d="M149,37.3l-27.8,9.8,2.7,20.7,26.3-17.1A111.2,111.2,0,0,1,149,37.3Z" style="fill: #d9374e"/>
  <path d="M171,4.3l-27.8,9.8,2.7,20.7,26.3-17.1A111.2,111.2,0,0,1,171,4.3Z" style="fill: #d9374e"/>
  <path d="M99.4,13.3l28,13.1L130,6.3,100.7.6A109.3,109.3,0,0,1,99.4,13.3Z" style="fill: #d9374e"/>
  <path d="M123.9,67.8,95.8,54.7,93.2,74.9l29.3,5.6A91.4,91.4,0,0,1,123.9,67.8Z" style="fill: #d9374e"/>
  <path d="M122.4,89.6,94.6,99.4l2.6,20.7L123.6,103A94,94,0,0,1,122.4,89.6Z" style="fill: #d9374e"/>
  <path d="M67.7,41.6,95.8,54.7l2.6-20.2L69.1,28.9A91.4,91.4,0,0,1,67.7,41.6Z" style="fill: #d9374e"/>
  <path d="M97.2,120.1,69.2,107l-2.6,20.1,29.2,5.7C96.1,128.6,96.5,124.3,97.2,120.1Z" style="fill: #d9374e"/>
  <path d="M95.7,141.9l-27.8,9.8,2.7,20.7L97,155.3A110.7,110.7,0,0,1,95.7,141.9Z" style="fill: #d9374e"/>
  <path d="M41.1,93.8,69.2,107l2.6-20.2L42.5,81.2A105.6,105.6,0,0,1,41.1,93.8Z" style="fill: #d9374e"/>
  <path d="M42.6,72.1l27.8-9.8L67.7,41.6,41.3,58.7A108.7,108.7,0,0,1,42.6,72.1Z" style="fill: #d9374e"/>
  <path d="M66.8,4,38.9,13.8l2.7,20.7L68,17.4A94,94,0,0,1,66.8,4Z" style="fill: #d9374e"/>
  <path d="M42.6,35.5,14.5,22.3,11.9,42.5l29.3,5.6A107.9,107.9,0,0,1,42.6,35.5Z" style="fill: #d9374e"/>
  <path d="M30.1,62.2,2.3,72,5,92.8,31.3,75.7Q30.4,69.4,30.1,62.2Z" style="fill: #d9374e"/>
  <path d="M70.6,172.4,42.5,159.3l-2.6,20.1L69.2,185A107.9,107.9,0,0,1,70.6,172.4Z" style="fill: #d9374e"/>
  <path d="M67.1,188.2,39.3,198,42,218.7l26.3-17.1C67.7,197.4,67.3,192.9,67.1,188.2Z" style="fill: #d9374e"/>
  <path d="M14.5,146.1l28,13.2,2.6-20.2-29.3-5.6A107.6,107.6,0,0,1,14.5,146.1Z" style="fill: #d9374e"/>
  <path d="M15.9,124.4l27.9-9.8L41.1,93.8,14.7,110.9A94.1,94.1,0,0,1,15.9,124.4Z" style="fill: #d9374e"/>
  <path d="M37.5,175.4,9.7,185.2l2.6,20.7,26.4-17A95.4,95.4,0,0,1,37.5,175.4Z" style="fill: #d9374e"/>
  <path d="M432.8,13.6,404.8.5l-2.6,20.2,29.3,5.6A109.3,109.3,0,0,1,432.8,13.6Z" style="fill: #d9374e"/>
  <path d="M431.4,35.4l-27.9,9.8,2.7,20.7,26.4-17.1A94,94,0,0,1,431.4,35.4Z" style="fill: #d9374e"/>
  <path d="M398.4,2.4l-27.9,9.8,2.7,20.7,26.4-17.1A94,94,0,0,1,398.4,2.4Z" style="fill: #d9374e"/>
  <path d="M406.2,65.9l-28-13.1L375.6,73l29.2,5.6A109.6,109.6,0,0,1,406.2,65.9Z" style="fill: #d9374e"/>
  <path d="M404.7,87.7l-27.8,9.8,2.7,20.7L406,101.1A110.7,110.7,0,0,1,404.7,87.7Z" style="fill: #d9374e"/>
  <path d="M350.1,39.7l28.1,13.1,2.6-20.2L351.5,27A109.6,109.6,0,0,1,350.1,39.7Z" style="fill: #d9374e"/>
  <path d="M349.1,2.1l-27.8,9.8L324,32.6l26.3-17.1A111.2,111.2,0,0,1,349.1,2.1Z" style="fill: #d9374e"/>
  <g>
    <g>
      <path d="M379.6,118.2l-28.1-13.1-2.6,20.1,29.3,5.7A107.2,107.2,0,0,1,379.6,118.2Z" style="fill: #d9374e"/>
      <path d="M378.1,140l-27.8,9.8,2.7,20.7,26.3-17.1A111.2,111.2,0,0,1,378.1,140Z" style="fill: #d9374e"/>
    </g>
    <g>
      <path d="M323.5,91.9l28,13.2,2.6-20.2-29.3-5.6A105.5,105.5,0,0,1,323.5,91.9Z" style="fill: #d9374e"/>
      <path d="M324.9,70.2l27.9-9.8-2.7-20.7L323.7,56.8A92.7,92.7,0,0,1,324.9,70.2Z" style="fill: #d9374e"/>
    </g>
    <g>
      <g>
        <path d="M353,170.5l-28.1-13.1-2.6,20.1,29.3,5.6A89.9,89.9,0,0,1,353,170.5Z" style="fill: #d9374e"/>
        <path d="M351.5,192.2,323.6,202l2.7,20.8,26.4-17.1A94.1,94.1,0,0,1,351.5,192.2Z" style="fill: #d9374e"/>
      </g>
      <g>
        <path d="M296.8,144.2l28.1,13.2,2.6-20.2-29.3-5.6A89.9,89.9,0,0,1,296.8,144.2Z" style="fill: #d9374e"/>
        <path d="M298.3,122.5l27.8-9.8-2.6-20.8L297.1,109A111.1,111.1,0,0,1,298.3,122.5Z" style="fill: #d9374e"/>
      </g>
    </g>
  </g>
  <path d="M324,21.6,295.9,8.4l-2.6,20.2,29.3,5.6A89.9,89.9,0,0,1,324,21.6Z" style="fill: #d9374e"/>
  <path d="M322.5,43.3l-27.8,9.8,2.6,20.8,26.4-17.1A94.1,94.1,0,0,1,322.5,43.3Z" style="fill: #d9374e"/>
  <path d="M297.3,73.9l-28-13.2-2.6,20.2,29.2,5.6C296.2,82.3,296.6,78,297.3,73.9Z" style="fill: #d9374e"/>
  <path d="M295.9,95.6,268,105.4l2.7,20.7L297.1,109A92.7,92.7,0,0,1,295.9,95.6Z" style="fill: #d9374e"/>
  <path d="M241.2,47.6l28.1,13.1,2.6-20.1-29.3-5.7A109.6,109.6,0,0,1,241.2,47.6Z" style="fill: #d9374e"/>
  <path d="M242.7,36.8,270.5,27,267.8,6.3,241.5,23.4C242.1,27.6,242.5,32.1,242.7,36.8Z" style="fill: #d9374e"/>
  <path d="M240.2,10l-27.8,9.8,2.7,20.7,26.4-17.1A110.7,110.7,0,0,1,240.2,10Z" style="fill: #d9374e"/>
  <path d="M351.5,294.2l27.8-9.8-2.7-20.7-26.4,17.1A110.7,110.7,0,0,1,351.5,294.2Z" style="fill: #d9374e"/>
  <path d="M345.5,271.6l-28.1-13.1-2.6,20.2,29.3,5.6A109.6,109.6,0,0,1,345.5,271.6Z" style="fill: #d9374e"/>
  <path d="M289.4,245.4l28,13.1,2.6-20.2-29.3-5.6A109.3,109.3,0,0,1,289.4,245.4Z" style="fill: #d9374e"/>
  <path d="M290.8,223.6l27.9-9.8L316,193.1l-26.4,17.1A94,94,0,0,1,290.8,223.6Z" style="fill: #d9374e"/>
  <path d="M264.2,275.9l27.8-9.8-2.6-20.7L263,262.5A94,94,0,0,1,264.2,275.9Z" style="fill: #d9374e"/>
  <path d="M461.5,276l28,13.2,2.6-20.2-29.3-5.6A105.5,105.5,0,0,1,461.5,276Z" style="fill: #d9374e"/>
  <path d="M529.9,114.3l27.9-9.8-2.7-20.7-26.4,17.1A92.7,92.7,0,0,1,529.9,114.3Z" style="fill: #d9374e"/>
  <path d="M522.1,67.8,550.2,81l2.6-20.2-29.3-5.6A105.6,105.6,0,0,1,522.1,67.8Z" style="fill: #d9374e"/>
  <path d="M515.6,61.1l27.8-9.8-2.7-20.7L514.3,47.7A108.7,108.7,0,0,1,515.6,61.1Z" style="fill: #e22b51"/>
  <path d="M558.6,15.5,530.5,2.3l-2.6,20.2,29.3,5.6A107.9,107.9,0,0,1,558.6,15.5Z" style="fill: #d9374e"/>
  <path d="M521.1,19.2,493.3,29,496,49.8l26.3-17.1Q521.4,26.4,521.1,19.2Z" style="fill: #d9374e"/>
  <path d="M551.6,146.4l-28.1-13.1-2.6,20.1,29.3,5.6A107.9,107.9,0,0,1,551.6,146.4Z" style="fill: #d9374e"/>
  <path d="M541.9,160l-27.7,10.1,3,20.7,26.1-17.4A110.2,110.2,0,0,1,541.9,160Z" style="fill: #d9374e"/>
  <path d="M495.5,120.1l28,13.2,2.6-20.2-29.3-5.6A107.6,107.6,0,0,1,495.5,120.1Z" style="fill: #d9374e"/>
  <path d="M496.9,98.4l27.9-9.8-2.7-20.8L495.7,84.9A94.1,94.1,0,0,1,496.9,98.4Z" style="fill: #d9374e"/>
  <path d="M525,198.7l-28.1-13.2-2.6,20.2,29.3,5.6A88.3,88.3,0,0,1,525,198.7Z" style="fill: #d9374e"/>
  <path d="M523.5,220.4l-27.8,9.8,2.6,20.7,26.4-17A95.4,95.4,0,0,1,523.5,220.4Z" style="fill: #d9374e"/>
  <path d="M468.8,172.4l28.1,13.1,2.6-20.1-29.3-5.7A89.7,89.7,0,0,1,468.8,172.4Z" style="fill: #d9374e"/>
  <path d="M470.3,150.6l27.8-9.8-2.6-20.7-26.4,17.1A94,94,0,0,1,470.3,150.6Z" style="fill: #d9374e"/>
  <path d="M496,49.8,467.9,36.6l-2.6,20.2,29.3,5.6A88.3,88.3,0,0,1,496,49.8Z" style="fill: #d9374e"/>
  <path d="M494.5,71.5l-27.8,9.8,2.6,20.7,26.4-17.1A92.7,92.7,0,0,1,494.5,71.5Z" style="fill: #d9374e"/>
  <path d="M439.8,23.5l28.1,13.1,2.6-20.1-29.3-5.7A89.7,89.7,0,0,1,439.8,23.5Z" style="fill: #d9374e"/>
  <path d="M422.3,77.7l27.8-9.8-2.6-20.7L421.1,64.3A94,94,0,0,1,422.3,77.7Z" style="fill: #d9374e"/>
  <path d="M469.3,102l-28-13.1-2.6,20.2,29.3,5.6A109.3,109.3,0,0,1,469.3,102Z" style="fill: #d9374e"/>
  <path d="M467.9,123.8,440,133.6l2.7,20.7,26.4-17.1A94,94,0,0,1,467.9,123.8Z" style="fill: #d9374e"/>
  <path d="M411.2,140.8l28.1,13.1,2.6-20.2-29.3-5.6A109.6,109.6,0,0,1,411.2,140.8Z" style="fill: #d9374e"/>
  <path d="M412.7,119l27.8-9.8-2.7-20.7-26.3,17.1A111.2,111.2,0,0,1,412.7,119Z" style="fill: #d9374e"/>
  <path d="M498.3,250.9l-28-13.1L467.7,258l29.3,5.6A109.3,109.3,0,0,1,498.3,250.9Z" style="fill: #d9374e"/>
  <path d="M466.9,286.7,439,296.5l2.7,20.7,26.4-17.1A94,94,0,0,1,466.9,286.7Z" style="fill: #d9374e"/>
  <path d="M442.2,224.7l28.1,13.1,2.6-20.1L443.6,212A109.6,109.6,0,0,1,442.2,224.7Z" style="fill: #d9374e"/>
  <path d="M440.7,219.3l-28.1-13.1L410,226.4l29.3,5.6A109.6,109.6,0,0,1,440.7,219.3Z" style="fill: #d9374e"/>
  <path d="M443.7,202.9l27.8-9.8-2.7-20.7-26.3,17.1C443.1,193.7,443.5,198.2,443.7,202.9Z" style="fill: #d9374e"/>
  <path d="M431.1,291.2l27.8-9.8-2.7-20.7-26.4,17.1A110.7,110.7,0,0,1,431.1,291.2Z" style="fill: #d9374e"/>
  <path d="M439.2,241.1l-27.8,9.8,2.7,20.7,26.4-17.1A110.7,110.7,0,0,1,439.2,241.1Z" style="fill: #d9374e"/>
  <path d="M384.6,193.1l28,13.1,2.6-20.2L386,180.4C385.7,184.6,385.3,188.9,384.6,193.1Z" style="fill: #d9374e"/>
  <path d="M386.1,171.3l27.8-9.8-2.7-20.7-26.4,17.1A110.7,110.7,0,0,1,386.1,171.3Z" style="fill: #d9374e"/>
  <path d="M414.1,271.6,386,258.5l-2.6,20.1,29.3,5.7A109.6,109.6,0,0,1,414.1,271.6Z" style="fill: #d9374e"/>
  <path d="M427.6,282.4l-27.8,9.8,2.6,20.7,26.4-17.1A111.2,111.2,0,0,1,427.6,282.4Z" style="fill: #d9374e"/>
  <path d="M358,245.3l28,13.2,2.6-20.2-29.3-5.6A105.5,105.5,0,0,1,358,245.3Z" style="fill: #d9374e"/>
  <path d="M359.4,223.6l27.9-9.8-2.7-20.7-26.4,17.1A92.7,92.7,0,0,1,359.4,223.6Z" style="fill: #d9374e"/>
</svg>
