<svg xmlns="http://www.w3.org/2000/svg" viewBox="0 0 447.5 69.3">
  <title>資產 41</title>
  <g id="db804e84-6fef-4c29-9d93-23b497090460" data-name="圖層 2">
    <g id="ab3ec706-1dd0-4358-b80f-866f3c51b9f7" data-name="design">
      <g>
        <path d="M323.3,45.5l3.9-30.1H311.9l-4,30.1h2.2l-1.7,6H314l1.6-5.8.9,5.8H322l-.9-6h2.2Zm-5.7-3.6h-3l.8-6h2.9Zm1.2-9.6h-2.9l.6-4.8h3Zm1.1-8.4h-3l.7-4.8h3Z" style="fill: #231815"/>
        <path d="M349.1,15.4h-5.9l-.2,1.7h-5.4V15.4h-5.8l-.2,1.7h-3.3l-.5,3.3h3.3l-.2,1.8h-3.1l-.5,3.3h3.2l-.3,1.9h-3.7l-.5,3.4h9.5l-.2,1.7h-8l-1.5,12.2h-1.8l-.5,3.4h1.9l-.5,3.4h5.1l.5-3.4h11.5l-.4,3.4h5.1l.5-3.4H349l.4-3.4h-1.7l1.5-12.2h-7.9l.2-1.7h9.6l.5-3.4h-4.1l.3-1.9h3.5l.4-3.3h-3.5l.3-1.8H352l.4-3.3h-3.5ZM334.3,44.7H331l.4-3h3.3Zm.8-6.3h-3.3l.3-2.5h3.3Zm7.5,6.3h-3.2l.4-3h3.1Zm1.1-8.8-.3,2.5h-3.2l.3-2.5Zm-2.1-8.5h-5.4l.3-1.9h5.4Zm.7-5.2h-5.4l.2-1.8h5.5Z" style="fill: #231815"/>
        <path d="M446.7,16.1H422.8l-3.7,29a56,56,0,0,1-1.2-5.9h-3.7l.4-2.8h3.9l.5-3.6h-4.7l6.1-8.3h-5.6l6.4-9.1h-7.4l-9,12.7h5.7l-6.6,8.3h5.3l-.3,2.8h-4.5c-1.3,4.7-3,9.2-5.2,12.3,0,0,4.7-2.2,9.4-9.8l-1.3,9.8h5.4l1.1-8.8a27.2,27.2,0,0,0,4.8,6.5l-.3,2.3h5.9L426,37.1h3.7l-1.5,11.1h9.3l-.5,3.3h5.9l4.6-35.4ZM430.1,33.5h-3.6l.5-3.6h3.6Zm7.8,11h-3.4l1-7.4h3.4Zm1.4-11H436l.4-3.6h3.4Zm1-7.2h-1.9l1.2-4.4h-4.2l-1.2,4.4h-.1l-.7-4.4h-4.2l.7,4.4h-2.5l.9-6.6h12.9Z" style="fill: #231815"/>
        <path d="M370.2,31.8l1-7.4h2.3l.5-3.6h-2.4l.7-5.4h-6.8l-.7,5.4h-1.9l.5-4.2H359l-1,7.8h6.3L363,35l-6.4,2.2-.9,6.7a49.8,49.8,0,0,0,6.5-3l-1.3,10.6h6.8l2-16c3.8-3.7,4.8-6.6,4.8-6.6A23.1,23.1,0,0,1,370.2,31.8Z" style="fill: #231815"/>
        <path d="M382.3,17.8l.3-2.4h-6.8l-1.4,10.4h3.2c-1.4,7.3-4,16.9-7.9,22.1,0,0,10.1-4.2,15.1-24.2h-3.3l.3-2.3h10.3l-.8,6.8h-6.4c-1.4,7.4-4,17.8-8.1,23.3,0,0,9-3.7,14.2-21l-2.7,21h7.2l4.3-33.7Z" style="fill: #231815"/>
      </g>
      <g>
        <g>
          <path d="M35,46.8a.6.6,0,0,0-.9.1l-1.5,2.2a1.1,1.1,0,0,1-.9.4H22.1V34h12c.4,0,.6-.1.7-.3a.7.7,0,0,0-.1-.6,17.5,17.5,0,0,0-4.4-4.2.8.8,0,0,0-1,.1l-1.5,2.1a.9.9,0,0,1-.9.5H22.1V17.7H36.3c.4,0,.6-.1.7-.3s.1-.4-.2-.7a15.3,15.3,0,0,0-4.3-4.1c-.4-.2-.7-.2-.9.1L30,14.9a1.2,1.2,0,0,1-.8.4H5.6L2.7,15c-.4-.1-.5,0-.5.1l.4,1.2h0v.5h0L3,18c0,.2.2.2.5.1L6,17.7H17.4V31.6H7.5l-2.9-.3c-.4-.1-.5-.1-.5.2l.4,1.6h0l.4,1.2c0,.2.2.2.4.1L7.8,34h9.6V49.5H3.5l-3-.3c-.4-.1-.5,0-.5.2l.3,1.2h0l.5,1.6c0,.2.2.3.4.1l2.6-.4H38.9a.8.8,0,0,0,.7-.3c.1-.2,0-.4-.2-.6A14.7,14.7,0,0,0,35,46.8Z" style="fill: #fff"/>
          <g>
            <path d="M53.7,29.3a1.7,1.7,0,0,0,.3,1.2,2.2,2.2,0,0,0,1.5.4,4.3,4.3,0,0,0,2.2-.6,1.8,1.8,0,0,0,.7-1.6H72.1a1.2,1.2,0,0,0,.4,1.3,1.7,1.7,0,0,0,1.4.5,5.9,5.9,0,0,0,1.9-.5,1.8,1.8,0,0,0,1-1.7V17.2a.8.8,0,0,1,.5-.7c1.1-.4,1.3-1.1.4-1.9a17.2,17.2,0,0,0-4.1-2.2c-.3-.1-.5-.1-.7.2l-1.1,1.7c-.2.3-.6.4-1.2.4H59.1a16.1,16.1,0,0,0-5.2-2.2c-.2-.1-.2.1-.2.4Zm4.7-12.2H71.5c.3-.1.4,0,.6.3v8.9H58.4Z" style="fill: #fff"/>
            <path d="M83.4,35.3a13.8,13.8,0,0,0-4.2-2.2.5.5,0,0,0-.7.1l-1.1,1.7c-.2.3-.6.4-1.2.4H71.7a14.9,14.9,0,0,0-4.8-2c-.2,0-.3.1-.3.4V52.9a1.7,1.7,0,0,0,.3,1.2,2.4,2.4,0,0,0,1.5.4,3.3,3.3,0,0,0,2.2-.6,1.8,1.8,0,0,0,.7-1.7v-.6h6.4v.6a2.1,2.1,0,0,0,.4,1.5,2,2,0,0,0,1.4.5,4.9,4.9,0,0,0,1.9-.5,2,2,0,0,0,1-1.7V37.8a.6.6,0,0,1,.5-.6C84.1,36.6,84.2,36,83.4,35.3ZM77.7,49.2H71.3V37.7h5.8c.3-.1.5-.1.6.3Z" style="fill: #fff"/>
            <path d="M64.3,35.3a12.7,12.7,0,0,0-4.2-2.2c-.2-.2-.4-.1-.7.1l-1.1,1.7c-.1.3-.5.4-1.2.4H52.7a16.8,16.8,0,0,0-4.9-2c-.2,0-.3.1-.2.4v19c-.1.6,0,1.1.3,1.2a1.6,1.6,0,0,0,1.4.5,3.8,3.8,0,0,0,2.2-.6,2.2,2.2,0,0,0,.8-1.8v-.4h6.3v.8a2.1,2.1,0,0,0,.5,1.5,1.9,1.9,0,0,0,1.3.5,3.8,3.8,0,0,0,1.9-.6,1.8,1.8,0,0,0,1.1-1.6V37.8c0-.3.1-.6.4-.6S65.2,36,64.3,35.3ZM58.6,49.2H52.3V37.7h5.8c.2-.1.4-.1.5.3Z" style="fill: #fff"/>
          </g>
        </g>
        <g>
          <path d="M280.8,32.4,292.9,38l1.1-8.7-12.6-2.4A51.4,51.4,0,0,1,280.8,32.4Z" style="fill: #fff"/>
          <path d="M281.5,23l11.9-4.2-1.1-8.9-11.4,7.3A51.6,51.6,0,0,1,281.5,23Z" style="fill: #fff"/>
          <path d="M208,39.5l9.5-.8.6-4.2-18.9,1.7-6.9.6c.5-1.8,1.1-3.6,1.6-5.5l5.5-.5,19.4-1.7.5-4.2-19.6,1.7L195,27c.4-1.7.8-3.5,1.1-5.4l3.9-.4,20-1.7.6-4.2-20.3,1.8-3.4.3.6-4.7,3-.3,20.7-1.8.5-4.2-7.8.7.4-3-12,1.1-.4,2.9L188.2,9.3l-.8-2.8-12,1,.9,2.9-7.4.6-.6,4.2,16.2-1.4c-.1.9-.3,2.5-.6,4.7l-16.2,1.4-.5,4.2,16.1-1.4c-.3,1.7-.5,3.5-.9,5.4l-15.9,1.4-.5,4.2,15.6-1.3c-.3,1.7-.7,3.5-1.1,5.4l-15.2,1.3-.6,4.2h0L179.5,42c-2.4,10-5.9,20.3-10.7,26.6,0,0,13-4.8,21.9-27.5l2.9-.3,1.8,4.5C200,57.3,211,64.1,222.6,63h0l4.6-.5S208.3,59.8,208,39.5Z" style="fill: #fff"/>
          <path d="M268.9,47.7c-1.8-1.8-3.5-3.7-5-5.5l2.3.6,1.1.4h1.5c3.3-.2,5.6-3.7,6.9-8.3a22.3,22.3,0,0,0,.9-3.9,47.4,47.4,0,0,0,.5-6.5,33.1,33.1,0,0,0-2.2-12.8l-.6-1.2,5.2.8,1.8.3.9-7L273,3.2l-5.6-.9L253.5,0,227.9,10l-1.1,8,27-10.6,5.7.9,3.1.5-4.2,1.6-18.7,7.4h-1.2l-7.7,3-4.9,37.7,6-.5L247.5,57l.4-4.1-8.7.7h0l.9-16.7v-.8l6.1,1.6c20.1,24.8,37,21.3,37,21.3C278.2,56.4,273.2,52.1,268.9,47.7Zm-.1-35.6c.9.8,2.9,5,2.9,12.5s-2.2,12.4-3.3,13.2c-.9-.8-2.9-5-2.9-12.4S267.7,12.9,268.8,12.1ZM241.3,30.8a9.4,9.4,0,0,1-.6-3.8,9.9,9.9,0,0,1,.7-4.1l20-7.9a43.4,43.4,0,0,0-1.3,10.3A34.1,34.1,0,0,0,261.6,36Z" style="fill: #fff"/>
          <polygon points="297.4 50.5 292.4 49.6 291.3 41.8 290.1 41.8 288.6 49.8 283.5 51.2 283.5 52.4 288.5 53.3 289.7 61.1 290.9 61.1 292.4 53.1 297.5 51.7 297.4 50.5" style="fill: #fff"/>
          <path d="M114.2,23.3l.5-3.4,45.7-4,.3-4.2L139,13.6l.4-2.9-10,.9-.4,2.9-22.7,2h-.2l-1,7.6-6,.5-.8,5.8,6.1-.5c-.2,1.5-.5,3.2-.8,5.1l-5.9.5L97,41.3l5.5-.5c-1.8,8-4.4,16.8-8.3,22,0,0,16.1-6,20-39.5Z" style="fill: #fff"/>
          <g>
            <path d="M157.1,43.2c.8-6.1,3-23.9,3-23.9l-33.7,2.9-9.2.9-.6,7.2s-1.7,27.8-9.6,39c0,0,3.3-1.3,7.1-6a35.3,35.3,0,0,0,4.4-6.7c3.2-6,6.1-14.8,7.1-27.4l.3-2.8,25.4-2.2s-1.8,14.6-2.5,19.8.7,8.5,3,11a15.4,15.4,0,0,0,1.9,1.7,14.3,14.3,0,0,0,9.2,2.3l2.3-.2S155.7,54,157.1,43.2Z" style="fill: #fff"/>
            <path d="M148.1,55.7l-7.2.7h0a13.4,13.4,0,0,0,1.4,3.2l-5.9.5,1.1-7.3,7.1-.6.5-4.3h0l1.1-8.2h0l.6-4.3-6.9.6.4-3.1,6.9-.6.5-4.3-19.1,1.7-.6,4.2,6.9-.6-.4,3.2-6.9.6v.6h0l-2.1,16.1h0l6.7-.6-1,7.4-8.8.8-.5,4.2,23.6-2a15.7,15.7,0,0,0,9.5,3.8C150.1,64.2,148.5,57.8,148.1,55.7Zm-8.8-15.4,2.3-.2-1,8.2-2.5.2Zm-8.7,8.9,1-8.3h2.3L132.7,49Z" style="fill: #fff"/>
          </g>
        </g>
      </g>
    </g>
  </g>
</svg>
